<svg aria-hidden="true" style="position: absolute; width: 0; height: 0; overflow: hidden;" version="1.1" xmlns="http://www.w3.org/2000/svg" xmlns:xlink="http://www.w3.org/1999/xlink">
<defs>
<symbol id="icon-linkedin" viewBox="0 0 64 64">
<path fill="#4d5ae5" style="fill: var(--color1, #4d5ae5)" d="M64 32c0 0.012 0 0.027 0 0.041 0 8.824-3.582 16.81-9.372 22.585l-0.001 0.001c-5.776 5.79-13.762 9.373-22.586 9.373-0.014 0-0.029 0-0.044 0h0.002c-0.012 0-0.027 0-0.041 0-8.823 0-16.81-3.582-22.585-9.372l-0.001-0.001c-5.79-5.776-9.373-13.763-9.373-22.587 0-0.014 0-0.029 0-0.043v0.002c0-0.012 0-0.027 0-0.041 0-8.823 3.582-16.81 9.372-22.585l0.001-0.001c5.776-5.79 13.763-9.373 22.587-9.373 0.014 0 0.029 0 0.043 0h-0.002c0.012 0 0.027 0 0.041 0 8.824 0 16.81 3.582 22.585 9.372l0.001 0.001c5.79 5.776 9.373 13.762 9.373 22.586 0 0.015 0 0.029 0 0.044v-0.002z"></path>
<path fill="#f4f4fd" style="fill: var(--color2, #f4f4fd)" d="M44.794 44.8h0.006v-9.392c0-4.592-0.989-8.131-6.358-8.131-2.581 0-4.314 1.418-5.021 2.76h-0.075v-2.331h-5.090v17.094h5.302v-8.464c0-2.229 0.422-4.384 3.181-4.384 2.72 0 2.76 2.544 2.76 4.528v8.32h5.296zM19.622 27.709h5.307v17.091h-5.307v-17.091zM22.274 19.2c-1.696 0-3.072 1.376-3.072 3.074 0 1.696 1.376 3.104 3.072 3.104 1.698 0 3.075-1.408 3.075-3.104s-1.381-3.074-3.077-3.074z"></path>
</symbol>
<symbol id="icon-twitter" viewBox="0 0 64 64">
<path fill="#4d5ae5" style="fill: var(--color1, #4d5ae5)" d="M64 32c0 0.012 0 0.027 0 0.041 0 8.824-3.582 16.81-9.372 22.585l-0.001 0.001c-5.776 5.79-13.762 9.373-22.586 9.373-0.014 0-0.029 0-0.044 0h0.002c-0.012 0-0.027 0-0.041 0-8.823 0-16.81-3.582-22.585-9.372l-0.001-0.001c-5.79-5.776-9.373-13.763-9.373-22.587 0-0.014 0-0.029 0-0.043v0.002c0-0.012 0-0.027 0-0.041 0-8.823 3.582-16.81 9.372-22.585l0.001-0.001c5.776-5.79 13.763-9.373 22.587-9.373 0.014 0 0.029 0 0.043 0h-0.002c0.012 0 0.027 0 0.041 0 8.824 0 16.81 3.582 22.585 9.372l0.001 0.001c5.79 5.776 9.373 13.762 9.373 22.586 0 0.015 0 0.029 0 0.044v-0.002z"></path>
<path fill="#f4f4fd" style="fill: var(--color2, #f4f4fd)" d="M44.8 24.062c-0.88 0.395-1.901 0.686-2.969 0.823l-0.054 0.006c1.088-0.653 1.905-1.663 2.298-2.864l0.010-0.037c-0.958 0.578-2.073 1.019-3.261 1.259l-0.067 0.011c-0.96-1.023-2.321-1.661-3.83-1.661-2.898 0-5.248 2.35-5.248 5.248 0 0 0 0.001 0 0.001v-0c0 0.416 0.035 0.816 0.122 1.197-4.374-0.221-8.222-2.302-10.796-5.463l-0.021-0.027c-0.45 0.759-0.716 1.673-0.716 2.649 0 1.811 0.916 3.409 2.311 4.354l0.018 0.012c-0.874-0.024-1.687-0.261-2.397-0.66l0.026 0.013v0.058c0.003 2.531 1.79 4.644 4.17 5.151l0.035 0.006c-0.401 0.11-0.86 0.173-1.335 0.173-0.014 0-0.029-0-0.043-0h0.002c-0.025 0-0.053 0.001-0.082 0.001-0.322 0-0.637-0.033-0.941-0.096l0.030 0.005c0.698 2.099 2.619 3.597 4.897 3.656l0.007 0c-1.771 1.396-4.035 2.238-6.496 2.238-0.004 0-0.008 0-0.012 0h0.001c-0.43 0-0.843-0.019-1.256-0.072 2.261 1.477 5.029 2.355 8.003 2.355 0.017 0 0.034 0 0.051-0h-0.003c9.658 0 14.938-8 14.938-14.934 0-0.232-0.008-0.456-0.019-0.678 1.039-0.75 1.913-1.653 2.607-2.687l0.024-0.038z"></path>
</symbol>
<symbol id="icon-instagram" viewBox="0 0 64 64">
<path fill="#4d5ae5" style="fill: var(--color1, #4d5ae5)" d="M64 32c0 0.012 0 0.027 0 0.041 0 8.824-3.582 16.81-9.372 22.585l-0.001 0.001c-5.776 5.79-13.762 9.373-22.586 9.373-0.014 0-0.029 0-0.044 0h0.002c-0.012 0-0.027 0-0.041 0-8.823 0-16.81-3.582-22.585-9.372l-0.001-0.001c-5.79-5.776-9.373-13.763-9.373-22.587 0-0.014 0-0.029 0-0.043v0.002c0-0.012 0-0.027 0-0.041 0-8.823 3.582-16.81 9.372-22.585l0.001-0.001c5.776-5.79 13.763-9.373 22.587-9.373 0.014 0 0.029 0 0.043 0h-0.002c0.012 0 0.027 0 0.041 0 8.824 0 16.81 3.582 22.585 9.372l0.001 0.001c5.79 5.776 9.373 13.762 9.373 22.586 0 0.015 0 0.029 0 0.044v-0.002z"></path>
<path fill="#f4f4fd" style="fill: var(--color2, #f4f4fd)" d="M44.774 26.726c-0.059-1.36-0.28-2.296-0.595-3.106-0.339-0.889-0.843-1.647-1.479-2.269l-0.001-0.001c-0.624-0.634-1.379-1.135-2.223-1.461l-0.043-0.015c-0.816-0.315-1.744-0.536-3.104-0.595-1.371-0.064-1.808-0.080-5.282-0.080-3.477 0-3.912 0.016-5.277 0.075-1.36 0.059-2.294 0.28-3.104 0.595-0.89 0.339-1.648 0.843-2.271 1.479l-0.001 0.001c-0.633 0.624-1.135 1.379-1.461 2.223l-0.015 0.043c-0.315 0.816-0.534 1.744-0.595 3.104-0.064 1.371-0.080 1.808-0.080 5.283s0.016 3.91 0.075 5.275c0.059 1.36 0.28 2.296 0.595 3.106 0.325 0.861 0.83 1.63 1.48 2.272 0.64 0.648 1.416 1.154 2.266 1.474 0.816 0.315 1.744 0.536 3.106 0.595 1.365 0.061 1.8 0.075 5.277 0.075 3.475 0 3.91-0.016 5.275-0.075 1.36-0.059 2.296-0.28 3.106-0.595 1.725-0.68 3.065-2.019 3.73-3.7l0.015-0.044c0.315-0.816 0.536-1.747 0.595-3.107 0.061-1.365 0.075-1.8 0.075-5.275 0-3.477-0.005-3.912-0.064-5.277zM42.47 37.178c-0.056 1.251-0.266 1.926-0.442 2.376-0.441 1.12-1.31 1.991-2.402 2.422l-0.029 0.010c-0.45 0.174-1.13 0.384-2.374 0.438-1.35 0.061-1.755 0.075-5.171 0.075s-3.826-0.016-5.171-0.075c-1.25-0.054-1.925-0.264-2.376-0.44-0.577-0.215-1.068-0.541-1.47-0.954l-0.001-0.001c-0.413-0.403-0.739-0.894-0.946-1.443l-0.009-0.027c-0.176-0.45-0.384-1.13-0.44-2.374-0.059-1.35-0.075-1.757-0.075-5.171 0-3.416 0.016-3.826 0.075-5.171 0.056-1.25 0.266-1.926 0.44-2.376 0.205-0.555 0.531-1.059 0.96-1.47 0.416-0.424 0.915-0.75 1.472-0.955 0.448-0.176 1.13-0.384 2.374-0.44 1.35-0.059 1.755-0.075 5.171-0.075 3.421 0 3.824 0.016 5.171 0.075 1.25 0.056 1.925 0.266 2.376 0.44 0.554 0.205 1.059 0.531 1.469 0.955 0.426 0.416 0.752 0.915 0.955 1.472 0.176 0.448 0.386 1.13 0.442 2.374 0.059 1.35 0.074 1.755 0.074 5.171 0 3.414-0.014 3.816-0.074 5.166z"></path>
<path fill="#f4f4fd" style="fill: var(--color2, #f4f4fd)" d="M32.048 25.426c-3.57 0.081-6.433 2.994-6.433 6.576s2.863 6.495 6.425 6.576l0.008 0c3.57-0.081 6.432-2.994 6.432-6.576s-2.863-6.495-6.425-6.576l-0.008-0zM32.048 36.269c-2.357 0-4.267-1.91-4.267-4.267s1.91-4.267 4.267-4.267v0c2.357 0 4.267 1.91 4.267 4.267s-1.91 4.267-4.267 4.267v0zM40.419 25.166c0 0.848-0.688 1.536-1.536 1.536s-1.536-0.688-1.536-1.536v0c0-0.848 0.688-1.536 1.536-1.536s1.536 0.688 1.536 1.536v0z"></path>
</symbol>
<symbol id="icon-facebook" viewBox="0 0 64 64">
<path fill="#4d5ae5" style="fill: var(--color1, #4d5ae5)" d="M64 32c0 0.012 0 0.027 0 0.041 0 8.824-3.582 16.81-9.372 22.585l-0.001 0.001c-5.776 5.79-13.762 9.373-22.586 9.373-0.014 0-0.029 0-0.044 0h0.002c-0.012 0-0.027 0-0.041 0-8.823 0-16.81-3.582-22.585-9.372l-0.001-0.001c-5.79-5.776-9.373-13.763-9.373-22.587 0-0.014 0-0.029 0-0.043v0.002c0-0.012 0-0.027 0-0.041 0-8.823 3.582-16.81 9.372-22.585l0.001-0.001c5.776-5.79 13.763-9.373 22.587-9.373 0.014 0 0.029 0 0.043 0h-0.002c0.012 0 0.027 0 0.041 0 8.824 0 16.81 3.582 22.585 9.372l0.001 0.001c5.79 5.776 9.373 13.762 9.373 22.586 0 0.015 0 0.029 0 0.044v-0.002z"></path>
<path fill="#f4f4fd" style="fill: var(--color2, #f4f4fd)" d="M36.264 23.451h2.336v-4.070c-0.99-0.115-2.137-0.181-3.299-0.181-0.037 0-0.074 0-0.111 0h0.006c-3.37 0-5.677 2.12-5.677 6.016v3.584h-3.718v4.55h3.718v11.45h4.558v-11.448h3.568l0.566-4.552h-4.136v-3.136c0.002-1.315 0.355-2.214 2.189-2.214z"></path>
</symbol>
<symbol id="icon-diagram" viewBox="0 0 64 64">
<path fill="#4d5ae5" style="fill: var(--color1, #4d5ae5)" d="M29.851 29.93h2.132v9.594h-2.132v-9.594zM38.38 34.194h2.132v5.33h-2.132v-5.33zM21.322 37.392h2.132v2.132h-2.132v-2.132zM14.925 36.326h2.133v3.198h-2.133v-3.198z"></path>
<path fill="#2e2f42" style="fill: var(--color3, #2e2f42)" d="M3.198 56.582h51.173c0 0 0.001 0 0.001 0 1.766 0 3.198-1.432 3.198-3.198v0-4.265c0-1.766-1.432-3.198-3.198-3.198-0 0-0.001 0-0.001 0h-1.066v-26.587l6.056-5.736c0.415 0.209 0.904 0.331 1.422 0.331 1.776 0 3.216-1.44 3.216-3.216s-1.44-3.216-3.216-3.216c-1.776 0-3.216 1.44-3.216 3.216 0 0.493 0.111 0.96 0.309 1.378l-0.008-0.020-4.563 4.325v-2.46c0-1.766-1.432-3.198-3.198-3.198v0h-42.644c-0 0-0.001 0-0.001 0-1.766 0-3.198 1.432-3.198 3.198 0 0 0 0.001 0 0.001v-0 31.982h-1.066c-1.766 0-3.198 1.432-3.198 3.198 0 0 0 0.001 0 0.001v-0 4.265c0 1.766 1.432 3.198 3.198 3.198v0zM60.768 9.673c0.589 0 1.066 0.477 1.066 1.066s-0.477 1.066-1.066 1.066v0c-0.589 0-1.066-0.477-1.066-1.066s0.477-1.066 1.066-1.066v0zM6.397 13.938c0-0.59 0.477-1.067 1.066-1.067h42.644c0.589 0 1.066 0.478 1.066 1.067v4.477l-2.132 2.026v-4.371c0-0.589-0.477-1.066-1.066-1.066h-38.38c-0.589 0-1.066 0.477-1.066 1.066v26.652c0 0.59 0.477 1.067 1.066 1.067h38.38c0.589 0 1.066-0.478 1.066-1.067v-19.348l2.132-2.020v24.566h-44.776v-31.982zM15.992 27.797c-0.003 0-0.006 0-0.009 0-1.766 0-3.198 1.432-3.198 3.198s1.432 3.198 3.198 3.198c0.864 0 1.648-0.343 2.224-0.9l-0.001 0.001 3.706 1.86c0.43 0.215 0.953 0.114 1.273-0.246l7.877-8.863 7.744 5.803c0.416 0.311 0.996 0.278 1.372-0.079l6.73-6.375v16.262h-36.246v-24.52h36.248v5.32l-7.544 7.144-7.81-5.855c-0.176-0.132-0.398-0.212-0.638-0.212-0.316 0-0.6 0.138-0.796 0.356l-0.001 0.001-7.986 8.985-2.986-1.493c0.022-0.128 0.036-0.257 0.041-0.387-0.001-1.766-1.432-3.197-3.198-3.198h-0zM17.058 30.995c0 0.589-0.477 1.067-1.066 1.067s-1.066-0.477-1.066-1.067v0c0-0.589 0.477-1.067 1.066-1.067s1.066 0.477 1.066 1.067v0zM23.454 48.053h10.661v1.066c0 0.589-0.477 1.066-1.066 1.066h-8.529c-0.589 0-1.066-0.477-1.066-1.066v0-1.066zM2.132 49.12c0-0.589 0.478-1.066 1.066-1.066h18.124v1.066c0 0 0 0.001 0 0.001 0 1.766 1.432 3.198 3.198 3.198h8.53c1.766 0 3.198-1.432 3.198-3.198 0-0 0-0.001 0-0.001v0-1.066h18.122c0.59 0 1.067 0.477 1.067 1.066v4.265c0 0.588-0.478 1.066-1.067 1.066h-51.172c-0.589 0-1.066-0.477-1.066-1.066v0-4.265z"></path>
</symbol>
<symbol id="icon-astronaut" viewBox="0 0 64 64">
<path fill="#4d5ae5" style="fill: var(--color1, #4d5ae5)" d="M63.948 9.048c-0.127-0.382-0.454-0.664-0.854-0.724l-0.006-0.001-3.822-0.556-1.71-3.462c-0.358-0.73-1.553-0.73-1.912 0l-1.71 3.462-3.82 0.556c-0.52 0.077-0.914 0.52-0.914 1.055 0 0.299 0.123 0.57 0.322 0.764l0 0 2.765 2.695-0.653 3.806c-0.068 0.4 0.096 0.804 0.424 1.043 0.332 0.241 0.765 0.271 1.124 0.081l3.418-1.797 3.418 1.797c0.143 0.076 0.313 0.121 0.494 0.121 0.59 0 1.068-0.478 1.068-1.068 0-0.063-0.005-0.124-0.016-0.183l0.001 0.006-0.652-3.806 2.766-2.695c0.199-0.194 0.322-0.465 0.322-0.765 0-0.118-0.019-0.231-0.054-0.337l0.002 0.008zM59.022 11.702c-0.25 0.244-0.366 0.598-0.306 0.944l0.382 2.228-2.001-1.051c-0.144-0.078-0.315-0.123-0.497-0.123s-0.353 0.046-0.503 0.126l0.006-0.003-2.001 1.051 0.382-2.228c0.010-0.054 0.015-0.116 0.015-0.18 0-0.3-0.123-0.57-0.322-0.764l-0-0-1.62-1.579 2.238-0.325c0.348-0.050 0.648-0.269 0.803-0.584l1-2.026 1.002 2.026c0.156 0.315 0.456 0.534 0.804 0.584l2.237 0.325-1.618 1.579zM52.267 41.044h-2.134v2.134h2.134v-2.134zM52.267 45.311h-2.134v2.134h2.134v-2.135z"></path>
<path fill="#4d5ae5" style="fill: var(--color1, #4d5ae5)" d="M54.4 43.178h-2.133v2.133h2.133v-2.133zM50.134 43.178h-2.134v2.133h2.134v-2.133zM44.8 52.778h-2.133v2.133h2.133v-2.133zM44.8 57.045h-2.133v2.133h2.133v-2.133zM46.934 54.911h-2.134v2.134h2.134v-2.135z"></path>
<path fill="#4d5ae5" style="fill: var(--color1, #4d5ae5)" d="M42.667 54.911h-2.134v2.134h2.134v-2.135zM32 48.511h-2.133v2.134h2.133v-2.135zM32 52.778h-2.133v2.133h2.133v-2.133zM34.133 50.645h-2.133v2.133h2.133v-2.133zM29.867 50.645h-2.134v2.133h2.134v-2.133zM11.733 12.244h-2.133v2.133h2.133v-2.133zM11.733 16.51h-2.133v2.134h2.133v-2.133zM13.866 14.377h-2.133v2.134h2.133v-2.134zM9.6 14.377h-2.134v2.134h2.134v-2.134z"></path>
<path fill="#2e2f42" style="fill: var(--color3, #2e2f42)" d="M49.43 28.319c-0.56-0.753-1.397-1.273-2.358-1.408l-0.019-0.002c-0.153-0.023-0.329-0.036-0.508-0.036-0.822 0-1.578 0.279-2.18 0.747l0.008-0.006-2.504 1.919-3.795 2.835-2.716-1.082c4.842-2.172 8.227-7.016 8.227-12.64 0-7.646-6.245-13.866-13.922-13.866s-13.923 6.22-13.923 13.866c0 2.771 0.828 5.348 2.24 7.517l-5.538-0.048c-0.017 0-0.030 0.009-0.047 0.010-0.113 0.005-0.218 0.027-0.317 0.063l0.007-0.002c-0.026 0.010-0.052 0.015-0.077 0.027-0.012 0.005-0.025 0.006-0.038 0.013l-6.468 3.193-3.787 1.822c-0.048 0.022-0.090 0.045-0.129 0.072l0.003-0.002c-0.963 0.647-1.588 1.733-1.588 2.964 0 0.593 0.145 1.153 0.402 1.645l-0.009-0.020c0.44 0.858 1.19 1.49 2.112 1.779 0.321 0.105 0.691 0.166 1.074 0.166 0.616 0 1.196-0.157 1.701-0.432l-0.019 0.009 2.776-1.476 4.528-2.339 2.714-0.015-10.884 10.83c0 0.002-0.002 0.002-0.003 0.003l-2.677 2.666c-0.605 0.598-0.98 1.428-0.98 2.346 0 0.004 0 0.007 0 0.011v-0.001c0 0.89 0.347 1.727 0.98 2.357 0.65 0.647 1.504 0.97 2.358 0.97 0.856 0 1.709-0.323 2.36-0.97l2.629-2.617 3.482-2.6 1.801 1.794-6.204 6.177c-0.605 0.598-0.98 1.428-0.98 2.346 0 0.003 0 0.006 0 0.010v-0.001c0 0.89 0.348 1.727 0.98 2.358 0.65 0.646 1.505 0.97 2.36 0.97 0.854 0 1.71-0.324 2.36-0.97l6.964-6.933c0-0.002 0-0.003 0.002-0.004l2.019-2-0.008-0.007c0.013-0.013 0.031-0.017 0.044-0.031l10.332-11.316 6.942 0.987c0.041 0.006 0.088 0.009 0.136 0.009 0.14 0 0.274-0.027 0.397-0.077l-0.007 0.003c0.035-0.013 0.066-0.030 0.1-0.047 0.038-0.019 0.078-0.030 0.114-0.054l6.427-4.267c0.024-0.016 0.036-0.041 0.059-0.059 0.025-0.020 0.057-0.028 0.080-0.050l2.544-2.383c0.694-0.651 1.127-1.574 1.127-2.598 0-0.801-0.264-1.54-0.711-2.134l0.007 0.009zM4.26 35.54c-0.346 0.186-0.74 0.223-1.116 0.104-0.589-0.185-1.009-0.727-1.009-1.367 0-0.472 0.228-0.89 0.581-1.151l0.004-0.003 2.628-1.264 0.632 1.849 0.266 0.776-1.985 1.055zM11.255 31.885l-3.097 1.6-0.51-1.494-0.367-1.073 4.053-2-0.079 2.967zM41.454 18.644c0 1.837-0.438 3.57-1.198 5.119l-8.363-3.798c-0.087-1.15-0.684-2.145-1.564-2.768l-0.012-0.008 2.928-9.72c4.755 1.511 8.209 5.947 8.209 11.174zM17.876 18.644c0-6.47 5.289-11.734 11.789-11.734 0.506 0 1 0.043 1.49 0.105l-2.864 9.507c-0.038 0-0.075-0.011-0.114-0.011-0.001 0-0.001 0-0.002 0-2.064 0-3.737 1.67-3.743 3.732v0.001c0.006 2.063 1.679 3.733 3.743 3.733 0.001 0 0.001 0 0.002 0h-0c1.389 0 2.589-0.766 3.236-1.889l7.725 3.51c-2.15 2.893-5.59 4.78-9.473 4.78-6.5 0-11.789-5.265-11.789-11.734zM29.789 20.244c0 0.882-0.724 1.6-1.612 1.6-0.001 0-0.003 0-0.004 0-0.885 0-1.603-0.715-1.608-1.6v-0c0-0.882 0.723-1.6 1.612-1.6s1.612 0.718 1.612 1.6zM4.929 50.292c-0.22 0.217-0.522 0.351-0.855 0.351-0.332 0-0.634-0.133-0.853-0.349l0 0c-0.218-0.215-0.353-0.514-0.353-0.845s0.135-0.629 0.353-0.844l0-0 1.924-1.917 1.702 1.695-1.917 1.91zM11.357 57.759c-0.22 0.218-0.522 0.352-0.856 0.352-0.333 0-0.635-0.134-0.854-0.35l0 0c-0.218-0.215-0.352-0.514-0.352-0.845s0.135-0.629 0.352-0.844l0-0 1.926-1.918 1.704 1.695-1.92 1.91zM18.321 50.822l-0.004 0.002-3.53 3.52-1.703-1.695 3.527-3.512s0.002 0 0.003-0.002c0.080-0.080 0.13-0.176 0.18-0.27 0.013-0.028 0.040-0.052 0.052-0.080 0.033-0.083 0.038-0.171 0.050-0.258 0.007-0.049 0.028-0.095 0.028-0.145 0-0.071-0.025-0.14-0.040-0.211-0.013-0.064-0.013-0.13-0.037-0.191-0.040-0.1-0.11-0.189-0.183-0.275-0.020-0.024-0.027-0.054-0.050-0.076h-0.001l-0.002-0.004-3.214-3.2c-0.034-0.034-0.078-0.048-0.116-0.077-0.051-0.042-0.108-0.080-0.168-0.112l-0.006-0.003c-0.053-0.025-0.115-0.048-0.18-0.064l-0.007-0.001c-0.060-0.019-0.13-0.033-0.202-0.040l-0.004-0c-0.012-0.001-0.027-0.001-0.041-0.001-0.053 0-0.104 0.004-0.155 0.011l0.006-0.001c-0.077 0.007-0.148 0.021-0.217 0.042l0.008-0.002c-0.072 0.026-0.134 0.056-0.192 0.092l0.004-0.002c-0.040 0.022-0.085 0.030-0.122 0.057l-3.547 2.648-1.801-1.794 4.798-4.773 8.72 8.578-1.854 1.838zM31.958 36.788c-0.030-0.004-0.060 0.008-0.090 0.006-0.015-0.001-0.034-0.001-0.052-0.001-0.063 0-0.125 0.006-0.184 0.016l0.006-0.001c-0.061 0.010-0.119 0.022-0.177 0.042-0.074 0.027-0.138 0.058-0.197 0.096l0.004-0.002c-0.060 0.036-0.114 0.075-0.166 0.123-0.026 0.022-0.057 0.033-0.080 0.058l-9.397 10.292-8.656-8.514 5.666-5.636c0.193-0.193 0.312-0.46 0.312-0.754 0-0.59-0.478-1.068-1.068-1.068-0.001 0-0.002 0-0.003 0h0l-4.437 0.026 0.055-3.215 6.208 0.053c2.527 2.593 6.054 4.202 9.957 4.202 0.002 0 0.005 0 0.007 0h-0c0.875 0 1.728-0.090 2.559-0.245 0.080 0.064 0.159 0.129 0.26 0.17l4.819 1.92 0.661 3.286-6.006-0.854zM40.041 37.145l-0.627-3.116 2.893-2.16 1.894 2.513-4.16 2.763zM47.548 31.483l-1.676 1.57-1.862-2.473 1.663-1.274c0.31-0.24 0.701-0.336 1.085-0.286 0.387 0.054 0.728 0.256 0.96 0.568 0.434 0.584 0.36 1.398-0.17 1.895z"></path>
<path fill="#2e2f42" style="fill: var(--color3, #2e2f42)" d="M27.204 37.088l-4.286-4.267c-0.193-0.192-0.459-0.311-0.753-0.311s-0.56 0.119-0.753 0.311l-4.285 4.267c-0.193 0.194-0.312 0.461-0.312 0.757s0.119 0.563 0.313 0.757l-0-0 4.285 4.266c0.193 0.192 0.459 0.311 0.753 0.311s0.56-0.119 0.753-0.311l4.286-4.266c0.194-0.193 0.315-0.461 0.315-0.757s-0.12-0.563-0.314-0.756l-0-0zM22.166 40.606l-2.773-2.762 2.773-2.761 2.775 2.761-2.775 2.762zM34.328 10.142l-0.515 2.071c0.142 0.035 3.476 0.904 3.476 4.298h2.133c0-4.034-3.331-5.931-5.093-6.37zM39.422 18.644h-2.133v2.134h2.133v-2.134z"></path>
</symbol>
<symbol id="icon-clock" viewBox="0 0 64 64">
<path fill="#2e2f42" style="fill: var(--color3, #2e2f42)" d="M62.593 30.602c-0.003-16.904-13.71-30.605-30.616-30.602-16.904 0.003-30.605 13.71-30.602 30.616 0.003 13.576 8.844 25.086 21.083 29.091l0.216 0.061c0.12 0.038 0.247 0.058 0.373 0.057 0.242 0 0.478-0.065 0.685-0.187 0.27-0.16 0.472-0.414 0.567-0.713l7.73-24.5c2.107-0.008 3.812-1.718 3.812-3.826 0-2.113-1.713-3.826-3.826-3.826-0.606 0-1.18 0.141-1.689 0.392l0.022-0.010-10.212-10.213c-0.231-0.231-0.549-0.373-0.901-0.373-0.704 0-1.275 0.571-1.275 1.275 0 0.352 0.143 0.671 0.374 0.902v0l10.207 10.218c-0.242 0.482-0.383 1.050-0.383 1.651 0 1.203 0.566 2.274 1.447 2.96l0.008 0.006-7.365 23.346c-14.556-5.362-22.009-21.508-16.647-36.064 5.362-14.554 21.509-22.009 36.064-16.647s22.008 21.509 16.647 36.064c-2.69 7.162-8.007 12.812-14.749 15.875l-0.176 0.072-0.796-3.749c-0.127-0.581-0.637-1.011-1.247-1.011-0.327 0-0.624 0.123-0.85 0.325l0.001-0.001-7.674 6.851c-0.263 0.235-0.428 0.575-0.428 0.953 0 0.567 0.37 1.047 0.881 1.213l0.009 0.002 9.797 3.127c0.117 0.039 0.251 0.061 0.391 0.061 0.704 0 1.275-0.571 1.275-1.275 0-0.094-0.010-0.186-0.030-0.275l0.002 0.008-0.782-3.678c11.055-4.749 18.657-15.543 18.657-28.113 0-0.023 0-0.045-0-0.068v0.004zM31.984 29.327c0.705 0 1.276 0.571 1.276 1.276s-0.571 1.276-1.276 1.276v0c-0.705 0-1.276-0.571-1.276-1.276s0.571-1.276 1.276-1.276v0zM36.185 59.055l4.368-3.896 1.206 5.68-5.574-1.784z"></path>
<path fill="#4d5ae5" style="fill: var(--color1, #4d5ae5)" d="M30.709 6.37v2.55c0 0.704 0.571 1.275 1.275 1.275s1.275-0.571 1.275-1.275v-2.55c-0.028-0.683-0.588-1.226-1.275-1.226s-1.247 0.543-1.275 1.223l-0 0.003zM7.752 29.327c-0.704 0-1.275 0.571-1.275 1.275s0.571 1.275 1.275 1.275h2.55c0.704 0 1.275-0.571 1.275-1.275s-0.571-1.275-1.275-1.275h-2.55zM56.216 31.878c0.704 0 1.275-0.571 1.275-1.275s-0.571-1.275-1.275-1.275h-2.55c-0.683 0.028-1.225 0.588-1.225 1.275s0.543 1.247 1.223 1.275l0.002 0h2.55z"></path>
</symbol>
<symbol id="icon-antenna" viewBox="0 0 64 64">
<path fill="#2e2f42" style="fill: var(--color3, #2e2f42)" d="M61.546 44.195l-16.886-17.010 1.874-9.23c0.484 0.188 0.998 0.287 1.517 0.29h0.013c0.015 0 0.033 0 0.051 0 2.385 0 4.318-1.933 4.318-4.318s-1.933-4.318-4.318-4.318c-2.385 0-4.318 1.933-4.318 4.318 0 0.519 0.092 1.017 0.26 1.478l-0.010-0.030-9.92 1.21-16.182-16.265c-0.192-0.196-0.458-0.318-0.753-0.32h-0c-0.28 0.001-0.548 0.113-0.747 0.31l-3.025 3.008c-0.193 0.193-0.313 0.46-0.313 0.755s0.119 0.561 0.313 0.755v0l1.628 1.65c-2.286 4.124-3.631 9.044-3.631 14.277 0 8.212 3.312 15.65 8.673 21.051l-0.002-0.002c0.084 0.081 0.183 0.147 0.291 0.195-0.064 0.328-0.102 0.706-0.104 1.092v12.376h-12.8c-2.945 0.003-5.331 2.389-5.335 5.333v2.133c0 0.59 0.478 1.067 1.067 1.067h49.067c0.589 0 1.067-0.478 1.067-1.067v-2.133c-0.004-2.944-2.39-5.33-5.334-5.333h-12.8v-5.484c2.005 0.42 4.048 0.635 6.097 0.64 5.16-0.006 10.009-1.326 14.234-3.645l-0.154 0.078 1.637 1.646c0.198 0.202 0.469 0.318 0.753 0.32 0.28-0.002 0.548-0.113 0.746-0.31l3.025-3.009c0.193-0.193 0.312-0.46 0.312-0.754s-0.119-0.561-0.312-0.754v0zM46.56 12.466c0.386-0.383 0.917-0.62 1.504-0.62 1.178 0 2.133 0.955 2.133 2.133s-0.955 2.133-2.133 2.133c-0 0-0 0-0.001 0h-0.006c-1.173-0.006-2.123-0.959-2.123-2.133 0-0.591 0.241-1.127 0.629-1.513l0-0h-0.004zM44.049 19.476l-1.197 5.89-2.351-2.364 3.548-3.527zM42.837 17.672l-3.84 3.817-2.97-2.987 6.81-0.83zM48.008 57.6c1.767 0 3.2 1.433 3.2 3.2v0 1.067h-46.933v-1.067c0-1.767 1.433-3.2 3.2-3.2h40.533zM33.075 53.333v2.134h-10.667v-2.134h10.667zM22.408 51.2v-8.107c0-2.587 2.393-4.693 5.333-4.693 2.941 0 5.334 2.106 5.334 4.693v8.107h-10.667zM35.208 47.808v-4.715c0-3.764-3.35-6.826-7.466-6.826-0.035-0.001-0.076-0.001-0.118-0.001-2.705 0-5.080 1.413-6.427 3.542l-0.018 0.031c-4.719-4.963-7.622-11.692-7.622-19.099 0-4.628 1.133-8.992 3.138-12.828l-0.073 0.153 37.204 37.417c-3.645 1.894-7.959 3.004-12.532 3.004-2.157 0-4.257-0.247-6.272-0.715l0.187 0.036zM57.786 46.441l-42.114-42.361 1.51-1.504 15.87 15.96c0.007 0 0.011 0.013 0.019 0.019l26.229 26.382-1.514 1.504z"></path>
<path fill="#4d5ae5" style="fill: var(--color1, #4d5ae5)" d="M27.751 40.533h-0.010c-0.002 0-0.003 0-0.005 0-1.767 0-3.2 1.433-3.2 3.2 0 1.766 1.43 3.197 3.195 3.2h0.010c0.002 0 0.003 0 0.005 0 1.767 0 3.2-1.433 3.2-3.2 0-1.766-1.43-3.197-3.195-3.2h-0zM28.498 44.49c-0.193 0.191-0.458 0.309-0.751 0.309-0.589 0-1.067-0.478-1.067-1.067 0-0.001 0-0.003 0-0.004v0c0.004-0.584 0.477-1.057 1.061-1.061h0c0.587 0.003 1.061 0.48 1.061 1.067 0 0.295-0.12 0.563-0.314 0.756l-0 0h0.010z"></path>
</symbol>
</defs>
</svg>
